<?xml version="1.0" standalone="yes"?>

<svg version="1.1" viewBox="0.0 0.0 960.0 720.0" fill="none" stroke="none" stroke-linecap="square" stroke-miterlimit="10" xmlns="http://www.w3.org/2000/svg" xmlns:xlink="http://www.w3.org/1999/xlink"><clipPath id="p.0"><path d="m0 0l960.0 0l0 720.0l-960.0 0l0 -720.0z" clip-rule="nonzero"></path></clipPath><g clip-path="url(#p.0)"><path fill="#000000" fill-opacity="0.0" d="m0 0l960.0 0l0 720.0l-960.0 0z" fill-rule="evenodd"></path><path fill="#f4cccc" d="m371.02625 145.60892l241.98425 0l0 189.92126l-241.98425 0z" fill-rule="evenodd"></path><path fill="#f4cccc" d="m260.75854 332.2861l352.25195 0l0 122.299194l-352.25195 0z" fill-rule="evenodd"></path><path fill="#f4cccc" d="m159.56693 454.57217l453.41733 0l0 189.92123l-453.41733 0z" fill-rule="evenodd"></path><path fill="#000000" fill-opacity="0.0" d="m125.51575 644.4908l-0.9763794 -561.19684" fill-rule="evenodd"></path><path stroke="#000000" stroke-width="1.0" stroke-linejoin="round" stroke-linecap="butt" d="m125.51575 644.4908l-0.9659424 -555.19684" fill-rule="evenodd"></path><path fill="#000000" stroke="#000000" stroke-width="1.0" stroke-linecap="butt" d="m126.20154 89.29108l-1.6596222 -4.5352097l-1.643837 4.540962z" fill-rule="evenodd"></path><path fill="#000000" fill-opacity="0.0" d="m124.54068 644.4908l488.44095 0" fill-rule="evenodd"></path><path stroke="#000000" stroke-width="1.0" stroke-linejoin="round" stroke-linecap="butt" stroke-dasharray="1.0,3.0" d="m124.54068 644.4908l488.44095 0" fill-rule="evenodd"></path><path fill="#000000" fill-opacity="0.0" d="m124.54068 581.2336l488.44095 0" fill-rule="evenodd"></path><path stroke="#000000" stroke-width="1.0" stroke-linejoin="round" stroke-linecap="butt" stroke-dasharray="1.0,3.0" d="m124.54068 581.2336l488.44095 0" fill-rule="evenodd"></path><path fill="#000000" fill-opacity="0.0" d="m124.54068 517.9764l488.44095 0" fill-rule="evenodd"></path><path stroke="#000000" stroke-width="1.0" stroke-linejoin="round" stroke-linecap="butt" stroke-dasharray="1.0,3.0" d="m124.54068 517.9764l488.44095 0" fill-rule="evenodd"></path><path fill="#000000" fill-opacity="0.0" d="m124.54068 394.5118l488.44095 0" fill-rule="evenodd"></path><path stroke="#000000" stroke-width="1.0" stroke-linejoin="round" stroke-linecap="butt" stroke-dasharray="1.0,3.0" d="m124.54068 394.5118l488.44095 0" fill-rule="evenodd"></path><path fill="#000000" fill-opacity="0.0" d="m124.54068 332.2861l488.44095 0" fill-rule="evenodd"></path><path stroke="#666666" stroke-width="1.0" stroke-linejoin="round" stroke-linecap="butt" d="m124.54068 332.2861l488.44095 0" fill-rule="evenodd"></path><path fill="#000000" fill-opacity="0.0" d="m124.54068 270.06036l488.44095 0" fill-rule="evenodd"></path><path stroke="#000000" stroke-width="1.0" stroke-linejoin="round" stroke-linecap="butt" stroke-dasharray="1.0,3.0" d="m124.54068 270.06036l488.44095 0" fill-rule="evenodd"></path><path fill="#000000" fill-opacity="0.0" d="m124.54068 207.83464l488.44095 0" fill-rule="evenodd"></path><path stroke="#000000" stroke-width="1.0" stroke-linejoin="round" stroke-linecap="butt" stroke-dasharray="1.0,3.0" d="m124.54068 207.83464l488.44095 0" fill-rule="evenodd"></path><path fill="#000000" fill-opacity="0.0" d="m90.81102 502.0971l25.952759 0l0 33.7323l-25.952759 0z" fill-rule="evenodd"></path><path fill="#000000" d="m109.77977 525.88324l-8.84375 0l0 -1.234375l4.671875 -5.1875q1.046875 -1.1875 1.4375 -1.921875q0.390625 -0.734375 0.390625 -1.53125q0 -1.046875 -0.640625 -1.71875q-0.640625 -0.6875 -1.703125 -0.6875q-1.28125 0 -2.0 0.734375q-0.703125 0.71875 -0.703125 2.015625l-1.71875 0q0 -1.859375 1.203125 -3.0q1.203125 -1.15625 3.21875 -1.15625q1.875 0 2.96875 0.984375q1.109375 0.984375 1.109375 2.625q0 2.0 -2.546875 4.75l-3.625 3.921875l6.78125 0l0 1.40625z" fill-rule="nonzero"></path><path fill="#000000" fill-opacity="0.0" d="m90.81102 377.64566l25.952759 0l0 33.7323l-25.952759 0z" fill-rule="evenodd"></path><path fill="#000000" d="m108.18602 396.90057l1.875 0l0 1.390625l-1.875 0l0 3.140625l-1.734375 0l0 -3.140625l-6.15625 0l0 -1.0l6.0625 -9.375l1.828125 0l0 8.984375zm-5.9375 0l4.203125 0l0 -6.625l-0.203125 0.359375l-4.0 6.265625z" fill-rule="nonzero"></path><path fill="#000000" fill-opacity="0.0" d="m90.81102 439.8714l25.952759 0l0 33.73227l-25.952759 0z" fill-rule="evenodd"></path><path fill="#000000" d="m103.43602 456.06378l1.28125 0q1.21875 -0.015625 1.90625 -0.625q0.703125 -0.625 0.703125 -1.6875q0 -2.375 -2.359375 -2.375q-1.125 0 -1.796875 0.640625q-0.65625 0.625 -0.65625 1.671875l-1.703125 0q0 -1.59375 1.171875 -2.65625q1.171875 -1.0625 2.984375 -1.0625q1.90625 0 2.984375 1.015625q1.09375 1.0 1.09375 2.796875q0 0.890625 -0.578125 1.71875q-0.5625 0.8125 -1.546875 1.21875q1.109375 0.359375 1.71875 1.1875q0.609375 0.8125 0.609375 1.984375q0 1.8125 -1.1875 2.890625q-1.1875 1.0625 -3.09375 1.0625q-1.90625 0 -3.09375 -1.03125q-1.1875 -1.03125 -1.1875 -2.71875l1.71875 0q0 1.0625 0.6875 1.703125q0.703125 0.640625 1.875 0.640625q1.25 0 1.90625 -0.640625q0.65625 -0.65625 0.65625 -1.875q0 -1.171875 -0.734375 -1.796875q-0.71875 -0.640625 -2.078125 -0.65625l-1.28125 0l0 -1.40625z" fill-rule="nonzero"></path><path fill="#000000" fill-opacity="0.0" d="m90.81102 564.3228l25.952759 0l0 33.7323l-25.952759 0z" fill-rule="evenodd"></path><path fill="#000000" d="m106.576645 588.10895l-1.734375 0l0 -11.4375l-3.453125 1.265625l0 -1.5625l4.921875 -1.84375l0.265625 0l0 13.578125z" fill-rule="nonzero"></path><path fill="#000000" fill-opacity="0.0" d="m40.225723 83.29396l84.31496 0l0 33.732285l-84.31496 0z" fill-rule="evenodd"></path><path fill="#000000" d="m60.34196 103.54885l-5.65625 0l-1.28125 3.53125l-1.828125 0l5.15625 -13.515625l1.5625 0l5.15625 13.515625l-1.828125 0l-1.28125 -3.53125zm-5.125 -1.453125l4.59375 0l-2.296875 -6.328125l-2.296875 6.328125zm11.185909 -5.046875l0.0625 1.25q1.140625 -1.4375 3.0 -1.4375q3.1875 0 3.203125 3.578125l0 6.640625l-1.703125 0l0 -6.640625q-0.015625 -1.09375 -0.5 -1.609375q-0.484375 -0.515625 -1.515625 -0.515625q-0.84375 0 -1.46875 0.453125q-0.625 0.4375 -0.984375 1.15625l0 7.15625l-1.71875 0l0 -10.03125l1.625 0zm10.293732 0l0.0625 1.25q1.140625 -1.4375 3.0 -1.4375q3.1875 0 3.203125 3.578125l0 6.640625l-1.703125 0l0 -6.640625q-0.015625 -1.09375 -0.5 -1.609375q-0.484375 -0.515625 -1.515625 -0.515625q-0.84375 0 -1.46875 0.453125q-0.625 0.4375 -0.984375 1.15625l0 7.15625l-1.71875 0l0 -10.03125l1.625 0zm12.840607 10.21875q-2.046875 0 -3.328125 -1.34375q-1.28125 -1.34375 -1.28125 -3.578125l0 -0.328125q0 -1.484375 0.5625 -2.65625q0.578125 -1.171875 1.59375 -1.828125q1.03125 -0.671875 2.234375 -0.671875q1.953125 0 3.03125 1.296875q1.09375 1.28125 1.09375 3.6875l0 0.703125l-6.796875 0q0.03125 1.484375 0.859375 2.40625q0.84375 0.90625 2.125 0.90625q0.90625 0 1.53125 -0.359375q0.640625 -0.375 1.109375 -0.984375l1.046875 0.8125q-1.265625 1.9375 -3.78125 1.9375zm-0.21875 -9.0q-1.03125 0 -1.75 0.765625q-0.703125 0.75 -0.859375 2.109375l5.015625 0l0 -0.125q-0.0625 -1.3125 -0.703125 -2.03125q-0.625 -0.71875 -1.703125 -0.71875zm0.6875 -5.421875l2.078125 0l-2.484375 2.734375l-1.390625 0l1.796875 -2.734375zm9.415054 14.421875q-2.046875 0 -3.328125 -1.34375q-1.28125 -1.34375 -1.28125 -3.578125l0 -0.328125q0 -1.484375 0.5625 -2.65625q0.578125 -1.171875 1.59375 -1.828125q1.03125 -0.671875 2.234375 -0.671875q1.953125 0 3.03125 1.296875q1.09375 1.28125 1.09375 3.6875l0 0.703125l-6.796875 0q0.03125 1.484375 0.859375 2.40625q0.84375 0.90625 2.125 0.90625q0.90625 0 1.53125 -0.359375q0.640625 -0.375 1.109375 -0.984375l1.046875 0.8125q-1.265625 1.9375 -3.78125 1.9375zm-0.21875 -9.0q-1.03125 0 -1.75 0.765625q-0.703125 0.75 -0.859375 2.109375l5.015625 0l0 -0.125q-0.0625 -1.3125 -0.703125 -2.03125q-0.625 -0.71875 -1.703125 -0.71875zm11.774437 6.15625q0 -0.703125 -0.53125 -1.078125q-0.515625 -0.390625 -1.828125 -0.671875q-1.296875 -0.28125 -2.0625 -0.671875q-0.765625 -0.390625 -1.140625 -0.921875q-0.359375 -0.546875 -0.359375 -1.28125q0 -1.234375 1.046875 -2.078125q1.046875 -0.859375 2.671875 -0.859375q1.703125 0 2.765625 0.875q1.0625 0.875 1.0625 2.25l-1.71875 0q0 -0.703125 -0.609375 -1.203125q-0.59375 -0.515625 -1.5 -0.515625q-0.9375 0 -1.46875 0.40625q-0.53125 0.40625 -0.53125 1.0625q0 0.625 0.484375 0.9375q0.5 0.3125 1.78125 0.609375q1.296875 0.28125 2.09375 0.6875q0.796875 0.390625 1.171875 0.953125q0.390625 0.5625 0.390625 1.375q0 1.34375 -1.078125 2.15625q-1.078125 0.8125 -2.796875 0.8125q-1.203125 0 -2.125 -0.421875q-0.921875 -0.4375 -1.453125 -1.203125q-0.53125 -0.765625 -0.53125 -1.65625l1.71875 0q0.046875 0.859375 0.6875 1.375q0.65625 0.5 1.703125 0.5q0.984375 0 1.5625 -0.390625q0.59375 -0.390625 0.59375 -1.046875z" fill-rule="nonzero"></path><path fill="#000000" fill-opacity="0.0" d="m90.81102 315.41995l25.952759 0l0 33.73227l-25.952759 0z" fill-rule="evenodd"></path><path fill="#000000" d="m101.71727 332.44046l0.6875 -6.75l6.921875 0l0 1.59375l-5.46875 0l-0.40625 3.6875q1.0 -0.59375 2.265625 -0.59375q1.84375 0 2.921875 1.21875q1.09375 1.21875 1.09375 3.296875q0 2.09375 -1.140625 3.296875q-1.125 1.203125 -3.140625 1.203125q-1.796875 0 -2.921875 -0.984375q-1.125 -1.0 -1.296875 -2.75l1.625 0q0.15625 1.15625 0.828125 1.75q0.671875 0.578125 1.765625 0.578125q1.203125 0 1.875 -0.8125q0.6875 -0.8125 0.6875 -2.25q0 -1.359375 -0.75 -2.171875q-0.734375 -0.828125 -1.953125 -0.828125q-1.125 0 -1.765625 0.484375l-0.453125 0.375l-1.375 -0.34375z" fill-rule="nonzero"></path><path fill="#000000" fill-opacity="0.0" d="m90.81102 128.74278l25.952759 0l0 33.732285l-25.952759 0z" fill-rule="evenodd"></path><path fill="#000000" d="m109.12352 142.54454q0 1.015625 -0.53125 1.8125q-0.53125 0.78125 -1.4375 1.21875q1.046875 0.453125 1.65625 1.328125q0.625 0.875 0.625 1.984375q0 1.75 -1.1875 2.796875q-1.171875 1.03125 -3.109375 1.03125q-1.9375 0 -3.109375 -1.046875q-1.171875 -1.046875 -1.171875 -2.78125q0 -1.09375 0.59375 -1.96875q0.59375 -0.890625 1.65625 -1.34375q-0.90625 -0.453125 -1.421875 -1.234375q-0.515625 -0.796875 -0.515625 -1.796875q0 -1.703125 1.09375 -2.703125q1.09375 -1.0 2.875 -1.0q1.78125 0 2.875 1.0q1.109375 1.0 1.109375 2.703125zm-1.40625 6.296875q0 -1.125 -0.71875 -1.84375q-0.71875 -0.71875 -1.875 -0.71875q-1.15625 0 -1.859375 0.71875q-0.703125 0.703125 -0.703125 1.859375q0 1.140625 0.6875 1.796875q0.6875 0.65625 1.890625 0.65625q1.21875 0 1.890625 -0.65625q0.6875 -0.671875 0.6875 -1.8125zm-2.578125 -8.59375q-1.0 0 -1.625 0.625q-0.625 0.625 -0.625 1.703125q0 1.03125 0.609375 1.671875q0.625 0.625 1.640625 0.625q1.03125 0 1.640625 -0.625q0.625 -0.640625 0.625 -1.671875q0 -1.03125 -0.640625 -1.671875q-0.640625 -0.65625 -1.625 -0.65625z" fill-rule="nonzero"></path><path fill="#000000" fill-opacity="0.0" d="m90.81102 190.9685l25.952759 0l0 33.732285l-25.952759 0z" fill-rule="evenodd"></path><path fill="#000000" d="m109.65477 202.20776l-5.59375 12.546875l-1.796875 0l5.578125 -12.09375l-7.3125 0l0 -1.421875l9.125 0l0 0.96875z" fill-rule="nonzero"></path><path fill="#000000" fill-opacity="0.0" d="m90.81102 253.19423l25.952759 0l0 33.732285l-25.952759 0z" fill-rule="evenodd"></path><path fill="#000000" d="m107.670395 263.46475l0 1.453125l-0.3125 0q-2.015625 0.03125 -3.203125 1.1875q-1.1875 1.15625 -1.359375 3.234375q1.0625 -1.21875 2.90625 -1.21875q1.765625 0 2.8125 1.25q1.0625 1.234375 1.0625 3.203125q0 2.09375 -1.140625 3.34375q-1.140625 1.25 -3.046875 1.25q-1.9375 0 -3.15625 -1.484375q-1.203125 -1.5 -1.203125 -3.84375l0 -0.65625q0 -3.734375 1.59375 -5.703125q1.59375 -1.96875 4.734375 -2.015625l0.3125 0zm-2.25 6.078125q-0.890625 0 -1.640625 0.53125q-0.734375 0.53125 -1.015625 1.328125l0 0.640625q0 1.65625 0.75 2.6875q0.75 1.015625 1.875 1.015625q1.15625 0 1.8125 -0.84375q0.671875 -0.859375 0.671875 -2.25q0 -1.390625 -0.671875 -2.25q-0.671875 -0.859375 -1.78125 -0.859375z" fill-rule="nonzero"></path><path fill="#000000" fill-opacity="0.0" d="m124.54068 454.71915l488.44095 0" fill-rule="evenodd"></path><path stroke="#666666" stroke-width="1.0" stroke-linejoin="round" stroke-linecap="butt" d="m124.54068 454.71915l488.44095 0" fill-rule="evenodd"></path><path fill="#000000" fill-opacity="0.0" d="m124.54068 145.60892l488.44095 0" fill-rule="evenodd"></path><path stroke="#666666" stroke-width="1.0" stroke-linejoin="round" stroke-linecap="butt" d="m124.54068 145.60892l488.44095 0" fill-rule="evenodd"></path><path fill="#000000" fill-opacity="0.0" d="m125.51706 83.29396l84.31496 0l0 33.732285l-84.31496 0z" fill-rule="evenodd"></path><path fill="#000000" d="m149.62466 105.314476q-0.6875 0.984375 -1.921875 1.46875q-1.234375 0.484375 -2.859375 0.484375q-1.65625 0 -2.9375 -0.765625q-1.28125 -0.78125 -1.984375 -2.203125q-0.6875 -1.4375 -0.71875 -3.328125l0 -1.171875q0 -3.046875 1.421875 -4.71875q1.4375 -1.6875 4.015625 -1.6875q2.109375 0 3.390625 1.078125q1.296875 1.078125 1.59375 3.0625l-1.78125 0q-0.5 -2.6875 -3.203125 -2.6875q-1.78125 0 -2.703125 1.265625q-0.921875 1.25 -0.9375 3.640625l0 1.109375q0 2.265625 1.03125 3.609375q1.046875 1.34375 2.8125 1.34375q1.015625 0 1.765625 -0.21875q0.75 -0.234375 1.234375 -0.765625l0 -3.03125l-3.125 0l0 -1.4375l4.90625 0l0 4.953125zm7.3171234 -6.734375q-0.390625 -0.0625 -0.84375 -0.0625q-1.6875 0 -2.296875 1.4375l0 7.125l-1.71875 0l0 -10.03125l1.671875 0l0.03125 1.15625q0.84375 -1.34375 2.390625 -1.34375q0.5 0 0.765625 0.125l0 1.59375zm7.6566315 8.5q-0.15625 -0.296875 -0.25 -1.0625q-1.1875 1.25 -2.859375 1.25q-1.484375 0 -2.4375 -0.84375q-0.9375 -0.84375 -0.9375 -2.125q0 -1.5625 1.1875 -2.4375q1.1875 -0.875 3.359375 -0.875l1.671875 0l0 -0.78125q0 -0.90625 -0.546875 -1.4375q-0.53125 -0.53125 -1.578125 -0.53125q-0.921875 0 -1.546875 0.46875q-0.625 0.46875 -0.625 1.125l-1.71875 0q0 -0.75 0.53125 -1.453125q0.53125 -0.703125 1.4375 -1.109375q0.921875 -0.40625 2.015625 -0.40625q1.734375 0 2.71875 0.875q0.984375 0.859375 1.015625 2.375l0 4.625q0 1.375 0.359375 2.1875l0 0.15625l-1.796875 0zm-2.859375 -1.3125q0.8125 0 1.53125 -0.40625q0.734375 -0.421875 1.0625 -1.09375l0 -2.0625l-1.359375 0q-3.140625 0 -3.140625 1.84375q0 0.8125 0.53125 1.265625q0.53125 0.453125 1.375 0.453125zm6.3823547 -3.796875q0 -2.296875 1.09375 -3.703125q1.109375 -1.40625 2.875 -1.40625q1.765625 0 2.796875 1.203125l0 -5.234375l1.71875 0l0 14.25l-1.578125 0l-0.09375 -1.078125q-1.03125 1.265625 -2.859375 1.265625q-1.75 0 -2.859375 -1.421875q-1.09375 -1.4375 -1.09375 -3.734375l0 -0.140625zm1.71875 0.203125q0 1.703125 0.703125 2.671875q0.71875 0.96875 1.953125 0.96875q1.640625 0 2.390625 -1.46875l0 -4.609375q-0.78125 -1.421875 -2.375 -1.421875q-1.25 0 -1.96875 0.984375q-0.703125 0.96875 -0.703125 2.875zm13.396469 5.09375q-2.046875 0 -3.328125 -1.34375q-1.28125 -1.34375 -1.28125 -3.578125l0 -0.328125q0 -1.484375 0.5625 -2.65625q0.578125 -1.171875 1.59375 -1.828125q1.03125 -0.671875 2.234375 -0.671875q1.953125 0 3.03125 1.296875q1.09375 1.28125 1.09375 3.6875l0 0.703125l-6.796875 0q0.03125 1.484375 0.859375 2.40625q0.84375 0.90625 2.125 0.90625q0.90625 0 1.53125 -0.359375q0.640625 -0.375 1.109375 -0.984375l1.046875 0.8125q-1.265625 1.9375 -3.78125 1.9375zm-0.21875 -9.0q-1.03125 0 -1.75 0.765625q-0.703125 0.75 -0.859375 2.109375l5.015625 0l0 -0.125q-0.0625 -1.3125 -0.703125 -2.03125q-0.625 -0.71875 -1.703125 -0.71875zm11.774429 6.15625q0 -0.703125 -0.53125 -1.078125q-0.515625 -0.390625 -1.828125 -0.671875q-1.296875 -0.28125 -2.0625 -0.671875q-0.765625 -0.390625 -1.140625 -0.921875q-0.359375 -0.546875 -0.359375 -1.28125q0 -1.234375 1.046875 -2.078125q1.046875 -0.859375 2.671875 -0.859375q1.703125 0 2.765625 0.875q1.0625 0.875 1.0625 2.25l-1.71875 0q0 -0.703125 -0.609375 -1.203125q-0.59375 -0.515625 -1.5 -0.515625q-0.9375 0 -1.46875 0.40625q-0.53125 0.40625 -0.53125 1.0625q0 0.625 0.484375 0.9375q0.5 0.3125 1.78125 0.609375q1.296875 0.28125 2.09375 0.6875q0.796875 0.390625 1.171875 0.953125q0.390625 0.5625 0.390625 1.375q0 1.34375 -1.078125 2.15625q-1.078125 0.8125 -2.796875 0.8125q-1.203125 0 -2.125 -0.421875q-0.921875 -0.4375 -1.453125 -1.203125q-0.53125 -0.765625 -0.53125 -1.65625l1.71875 0q0.046875 0.859375 0.6875 1.375q0.65625 0.5 1.703125 0.5q0.984375 0 1.5625 -0.390625q0.59375 -0.390625 0.59375 -1.046875z" fill-rule="nonzero"></path><path fill="#ea9999" d="m454.063 145.60892l14.047241 -28.094467l36.75592 0l14.047241 28.094467l-14.047241 28.094482l-36.75592 0z" fill-rule="evenodd"></path><path stroke="#999999" stroke-width="2.0" stroke-linejoin="round" stroke-linecap="butt" d="m454.063 145.60892l14.047241 -28.094467l36.75592 0l14.047241 28.094467l-14.047241 28.094482l-36.75592 0z" fill-rule="evenodd"></path><path fill="#ffffff" d="m481.93365 152.52892l0 -13.515625l3.8125 0q1.765625 0 3.125 0.78125q1.359375 0.78125 2.09375 2.21875q0.734375 1.4375 0.75 3.3125l0 0.859375q0 1.90625 -0.75 3.34375q-0.734375 1.4375 -2.109375 2.21875q-1.359375 0.765625 -3.171875 0.78125l-3.75 0zm1.78125 -12.046875l0 10.59375l1.875 0q2.0625 0 3.203125 -1.28125q1.15625 -1.28125 1.15625 -3.65625l0 -0.78125q0 -2.296875 -1.09375 -3.578125q-1.078125 -1.28125 -3.0625 -1.296875l-2.078125 0z" fill-rule="nonzero"></path><path fill="#ea9999" d="m336.33597 332.2861l14.047241 -28.094482l36.75589 0l14.047241 28.094482l-14.047241 28.094452l-36.75589 0z" fill-rule="evenodd"></path><path stroke="#999999" stroke-width="2.0" stroke-linejoin="round" stroke-linecap="butt" d="m336.33597 332.2861l14.047241 -28.094482l36.75589 0l14.047241 28.094482l-14.047241 28.094452l-36.75589 0z" fill-rule="evenodd"></path><path fill="#ffffff" d="m364.49228 325.69046l4.40625 11.03125l4.421875 -11.03125l2.3125 0l0 13.515625l-1.78125 0l0 -5.265625l0.15625 -5.671875l-4.421875 10.9375l-1.375 0l-4.421875 -10.90625l0.171875 5.640625l0 5.265625l-1.78125 0l0 -13.515625l2.3125 0z" fill-rule="nonzero"></path><path fill="#ea9999" d="m229.28346 454.71915l14.047241 -28.094452l36.755905 0l14.047241 28.094452l-14.047241 28.094482l-36.755905 0z" fill-rule="evenodd"></path><path stroke="#999999" stroke-width="2.0" stroke-linejoin="round" stroke-linecap="butt" d="m229.28346 454.71915l14.047241 -28.094452l36.755905 0l14.047241 28.094452l-14.047241 28.094482l-36.755905 0z" fill-rule="evenodd"></path><path fill="#ffffff" d="m260.0487 460.18604l6.40625 0l0 1.453125l-8.203125 0l0 -13.515625l1.796875 0l0 12.0625z" fill-rule="nonzero"></path><path fill="#ea9999" d="m125.51706 644.4908l14.047241 -28.094421l36.755905 0l14.047241 28.094421l-14.047241 28.094482l-36.755905 0z" fill-rule="evenodd"></path><path stroke="#999999" stroke-width="2.0" stroke-linejoin="round" stroke-linecap="butt" d="m125.51706 644.4908l14.047241 -28.094421l36.755905 0l14.047241 28.094421l-14.047241 28.094482l-36.755905 0z" fill-rule="evenodd"></path><path fill="#ffffff" d="m153.69745 651.4108l0 -13.515625l4.421875 0q2.203125 0 3.3125 0.921875q1.109375 0.90625 1.109375 2.6875q0 0.9375 -0.546875 1.671875q-0.53125 0.734375 -1.46875 1.125q1.09375 0.3125 1.734375 1.171875q0.640625 0.859375 0.640625 2.046875q0 1.8125 -1.1875 2.859375q-1.171875 1.03125 -3.328125 1.03125l-4.6875 0zm1.78125 -6.3125l0 4.859375l2.953125 0q1.234375 0 1.953125 -0.640625q0.71875 -0.65625 0.71875 -1.78125q0 -2.4375 -2.65625 -2.4375l-2.96875 0zm0 -1.4375l2.703125 0q1.15625 0 1.859375 -0.578125q0.703125 -0.59375 0.703125 -1.59375q0 -1.109375 -0.65625 -1.609375q-0.640625 -0.515625 -1.96875 -0.515625l-2.640625 0l0 4.296875z" fill-rule="nonzero"></path><path fill="#000000" fill-opacity="0.0" d="m93.56431 671.9974l128.75589 0l0 41.51184l-128.75589 0z" fill-rule="evenodd"></path><path fill="#000000" d="m105.084625 699.6733l0 -13.515625l4.421875 0q2.203125 0 3.3125 0.921875q1.109375 0.90625 1.109375 2.6875q0 0.9375 -0.546875 1.671875q-0.53125 0.734375 -1.46875 1.125q1.09375 0.3125 1.734375 1.171875q0.640625 0.859375 0.640625 2.046875q0 1.8125 -1.1875 2.859375q-1.171875 1.03125 -3.328125 1.03125l-4.6875 0zm1.78125 -6.3125l0 4.859375l2.953125 0q1.234375 0 1.953125 -0.640625q0.71875 -0.65625 0.71875 -1.78125q0 -2.4375 -2.65625 -2.4375l-2.96875 0zm0 -1.4375l2.703125 0q1.15625 0 1.859375 -0.578125q0.703125 -0.59375 0.703125 -1.59375q0 -1.109375 -0.65625 -1.609375q-0.640625 -0.515625 -1.96875 -0.515625l-2.640625 0l0 4.296875zm15.770859 7.75q-0.15625 -0.296875 -0.25 -1.0625q-1.1875 1.25 -2.859375 1.25q-1.484375 0 -2.4375 -0.84375q-0.9375 -0.84375 -0.9375 -2.125q0 -1.5625 1.1875 -2.4375q1.1875 -0.875 3.359375 -0.875l1.671875 0l0 -0.78125q0 -0.90625 -0.546875 -1.4375q-0.53125 -0.53125 -1.578125 -0.53125q-0.921875 0 -1.546875 0.46875q-0.625 0.46875 -0.625 1.125l-1.71875 0q0 -0.75 0.53125 -1.453125q0.53125 -0.703125 1.4375 -1.109375q0.921875 -0.40625 2.015625 -0.40625q1.734375 0 2.71875 0.875q0.984375 0.859375 1.015625 2.375l0 4.625q0 1.375 0.359375 2.1875l0 0.15625l-1.796875 0zm-2.859375 -1.3125q0.8125 0 1.53125 -0.40625q0.734375 -0.421875 1.0625 -1.09375l0 -2.0625l-1.359375 0q-3.140625 0 -3.140625 1.84375q0 0.8125 0.53125 1.265625q0.53125 0.453125 1.375 0.453125zm10.83548 0.09375q0.921875 0 1.59375 -0.546875q0.6875 -0.5625 0.765625 -1.390625l1.625 0q-0.046875 0.859375 -0.59375 1.640625q-0.546875 0.765625 -1.46875 1.234375q-0.90625 0.46875 -1.921875 0.46875q-2.046875 0 -3.265625 -1.359375q-1.203125 -1.375 -1.203125 -3.75l0 -0.296875q0 -1.46875 0.53125 -2.609375q0.546875 -1.140625 1.546875 -1.765625q1.0 -0.625 2.375 -0.625q1.6875 0 2.796875 1.015625q1.125 1.0 1.203125 2.609375l-1.625 0q-0.078125 -0.96875 -0.734375 -1.59375q-0.65625 -0.625 -1.640625 -0.625q-1.296875 0 -2.03125 0.9375q-0.71875 0.9375 -0.71875 2.71875l0 0.328125q0 1.734375 0.71875 2.671875q0.71875 0.9375 2.046875 0.9375zm9.765381 0q0.921875 0 1.59375 -0.546875q0.6875 -0.5625 0.765625 -1.390625l1.625 0q-0.046875 0.859375 -0.59375 1.640625q-0.546875 0.765625 -1.46875 1.234375q-0.90625 0.46875 -1.921875 0.46875q-2.046875 0 -3.265625 -1.359375q-1.203125 -1.375 -1.203125 -3.75l0 -0.296875q0 -1.46875 0.53125 -2.609375q0.546875 -1.140625 1.546875 -1.765625q1.0 -0.625 2.375 -0.625q1.6875 0 2.796875 1.015625q1.125 1.0 1.203125 2.609375l-1.625 0q-0.078125 -0.96875 -0.734375 -1.59375q-0.65625 -0.625 -1.640625 -0.625q-1.296875 0 -2.03125 0.9375q-0.71875 0.9375 -0.71875 2.71875l0 0.328125q0 1.734375 0.71875 2.671875q0.71875 0.9375 2.046875 0.9375zm11.937256 1.21875q-0.15625 -0.296875 -0.25 -1.0625q-1.1875 1.25 -2.859375 1.25q-1.484375 0 -2.4375 -0.84375q-0.9375 -0.84375 -0.9375 -2.125q0 -1.5625 1.1875 -2.4375q1.1875 -0.875 3.359375 -0.875l1.671875 0l0 -0.78125q0 -0.90625 -0.546875 -1.4375q-0.53125 -0.53125 -1.578125 -0.53125q-0.921875 0 -1.546875 0.46875q-0.625 0.46875 -0.625 1.125l-1.71875 0q0 -0.75 0.53125 -1.453125q0.53125 -0.703125 1.4375 -1.109375q0.921875 -0.40625 2.015625 -0.40625q1.734375 0 2.71875 0.875q0.984375 0.859375 1.015625 2.375l0 4.625q0 1.375 0.359375 2.1875l0 0.15625l-1.796875 0zm-2.859375 -1.3125q0.8125 0 1.53125 -0.40625q0.734375 -0.421875 1.0625 -1.09375l0 -2.0625l-1.359375 0q-3.140625 0 -3.140625 1.84375q0 0.8125 0.53125 1.265625q0.53125 0.453125 1.375 0.453125zm8.663605 1.3125l-1.703125 0l0 -14.25l1.703125 0l0 14.25zm8.87117 0q-0.15625 -0.296875 -0.25 -1.0625q-1.1875 1.25 -2.859375 1.25q-1.484375 0 -2.4375 -0.84375q-0.9375 -0.84375 -0.9375 -2.125q0 -1.5625 1.1875 -2.4375q1.1875 -0.875 3.359375 -0.875l1.671875 0l0 -0.78125q0 -0.90625 -0.546875 -1.4375q-0.53125 -0.53125 -1.578125 -0.53125q-0.921875 0 -1.546875 0.46875q-0.625 0.46875 -0.625 1.125l-1.71875 0q0 -0.75 0.53125 -1.453125q0.53125 -0.703125 1.4375 -1.109375q0.921875 -0.40625 2.015625 -0.40625q1.734375 0 2.71875 0.875q0.984375 0.859375 1.015625 2.375l0 4.625q0 1.375 0.359375 2.1875l0 0.15625l-1.796875 0zm-2.859375 -1.3125q0.8125 0 1.53125 -0.40625q0.734375 -0.421875 1.0625 -1.09375l0 -2.0625l-1.359375 0q-3.140625 0 -3.140625 1.84375q0 0.8125 0.53125 1.265625q0.53125 0.453125 1.375 0.453125zm13.007355 0.3125q-1.0 1.1875 -2.9375 1.1875q-1.609375 0 -2.453125 -0.921875q-0.84375 -0.9375 -0.84375 -2.765625l0 -6.53125l1.71875 0l0 6.484375q0 2.28125 1.84375 2.28125q1.96875 0 2.625 -1.46875l0 -7.296875l1.71875 0l0 10.03125l-1.640625 0l-0.03125 -1.0zm8.940872 -7.5q-0.390625 -0.0625 -0.84375 -0.0625q-1.6875 0 -2.296875 1.4375l0 7.125l-1.71875 0l0 -10.03125l1.671875 0l0.03125 1.15625q0.84375 -1.34375 2.390625 -1.34375q0.5 0 0.765625 0.125l0 1.59375zm5.6253815 8.6875q-2.046875 0 -3.328125 -1.34375q-1.28125 -1.34375 -1.28125 -3.578125l0 -0.328125q0 -1.484375 0.5625 -2.65625q0.578125 -1.171875 1.59375 -1.828125q1.03125 -0.671875 2.234375 -0.671875q1.953125 0 3.03125 1.296875q1.09375 1.28125 1.09375 3.6875l0 0.703125l-6.796875 0q0.03125 1.484375 0.859375 2.40625q0.84375 0.90625 2.125 0.90625q0.90625 0 1.53125 -0.359375q0.640625 -0.375 1.109375 -0.984375l1.046875 0.8125q-1.265625 1.9375 -3.78125 1.9375zm-0.21875 -9.0q-1.03125 0 -1.75 0.765625q-0.703125 0.75 -0.859375 2.109375l5.015625 0l0 -0.125q-0.0625 -1.3125 -0.703125 -2.03125q-0.625 -0.71875 -1.703125 -0.71875zm0.6875 -5.421875l2.078125 0l-2.484375 2.734375l-1.390625 0l1.796875 -2.734375zm11.446304 14.234375q-0.15625 -0.296875 -0.25 -1.0625q-1.1875 1.25 -2.859375 1.25q-1.484375 0 -2.4375 -0.84375q-0.9375 -0.84375 -0.9375 -2.125q0 -1.5625 1.1875 -2.4375q1.1875 -0.875 3.359375 -0.875l1.671875 0l0 -0.78125q0 -0.90625 -0.546875 -1.4375q-0.53125 -0.53125 -1.578125 -0.53125q-0.921875 0 -1.546875 0.46875q-0.625 0.46875 -0.625 1.125l-1.71875 0q0 -0.75 0.53125 -1.453125q0.53125 -0.703125 1.4375 -1.109375q0.921875 -0.40625 2.015625 -0.40625q1.734375 0 2.71875 0.875q0.984375 0.859375 1.015625 2.375l0 4.625q0 1.375 0.359375 2.1875l0 0.15625l-1.796875 0zm-2.859375 -1.3125q0.8125 0 1.53125 -0.40625q0.734375 -0.421875 1.0625 -1.09375l0 -2.0625l-1.359375 0q-3.140625 0 -3.140625 1.84375q0 0.8125 0.53125 1.265625q0.53125 0.453125 1.375 0.453125zm9.132355 -11.15625l0 2.4375l1.875 0l0 1.3125l-1.875 0l0 6.234375q0 0.59375 0.25 0.90625q0.25 0.296875 0.859375 0.296875q0.296875 0 0.8125 -0.109375l0 1.390625q-0.671875 0.1875 -1.3125 0.1875q-1.15625 0 -1.75 -0.6875q-0.578125 -0.703125 -0.578125 -1.984375l0 -6.234375l-1.828125 0l0 -1.3125l1.828125 0l0 -2.4375l1.71875 0z" fill-rule="nonzero"></path><path fill="#000000" fill-opacity="0.0" d="m422.11023 173.70341l128.75592 0l0 41.51181l-128.75592 0z" fill-rule="evenodd"></path><path fill="#000000" d="m452.0864 201.37932l0 -13.515625l3.8125 0q1.765625 0 3.125 0.78125q1.359375 0.78125 2.09375 2.21875q0.734375 1.4375 0.75 3.3125l0 0.859375q0 1.90625 -0.75 3.34375q-0.734375 1.4375 -2.109375 2.21875q-1.359375 0.765625 -3.171875 0.78125l-3.75 0zm1.78125 -12.046875l0 10.59375l1.875 0q2.0625 0 3.203125 -1.28125q1.15625 -1.28125 1.15625 -3.65625l0 -0.78125q0 -2.296875 -1.09375 -3.578125q-1.078125 -1.28125 -3.0625 -1.296875l-2.078125 0zm9.734039 6.9375q0 -1.484375 0.578125 -2.65625q0.578125 -1.171875 1.609375 -1.8125q1.046875 -0.640625 2.375 -0.640625q2.046875 0 3.3125 1.421875q1.265625 1.40625 1.265625 3.765625l0 0.125q0 1.46875 -0.5625 2.640625q-0.5625 1.15625 -1.609375 1.8125q-1.046875 0.640625 -2.390625 0.640625q-2.046875 0 -3.3125 -1.421875q-1.265625 -1.421875 -1.265625 -3.75l0 -0.125zm1.71875 0.203125q0 1.671875 0.78125 2.6875q0.78125 1.0 2.078125 1.0q1.296875 0 2.0625 -1.015625q0.78125 -1.03125 0.78125 -2.875q0 -1.65625 -0.78125 -2.671875q-0.78125 -1.03125 -2.078125 -1.03125q-1.28125 0 -2.0625 1.015625q-0.78125 1.0 -0.78125 2.890625zm13.405518 3.6875q0.921875 0 1.59375 -0.546875q0.6875 -0.5625 0.765625 -1.390625l1.625 0q-0.046875 0.859375 -0.59375 1.640625q-0.546875 0.765625 -1.46875 1.234375q-0.90625 0.46875 -1.921875 0.46875q-2.046875 0 -3.265625 -1.359375q-1.203125 -1.375 -1.203125 -3.75l0 -0.296875q0 -1.46875 0.53125 -2.609375q0.546875 -1.140625 1.546875 -1.765625q1.0 -0.625 2.375 -0.625q1.6875 0 2.796875 1.015625q1.125 1.0 1.203125 2.609375l-1.625 0q-0.078125 -0.96875 -0.734375 -1.59375q-0.65625 -0.625 -1.640625 -0.625q-1.296875 0 -2.03125 0.9375q-0.71875 0.9375 -0.71875 2.71875l0 0.328125q0 1.734375 0.71875 2.671875q0.71875 0.9375 2.046875 0.9375zm8.062256 -11.25l0 2.4375l1.875 0l0 1.3125l-1.875 0l0 6.234375q0 0.59375 0.25 0.90625q0.25 0.296875 0.859375 0.296875q0.296875 0 0.8125 -0.109375l0 1.390625q-0.671875 0.1875 -1.3125 0.1875q-1.15625 0 -1.75 -0.6875q-0.578125 -0.703125 -0.578125 -1.984375l0 -6.234375l-1.828125 0l0 -1.3125l1.828125 0l0 -2.4375l1.71875 0zm3.3130188 7.359375q0 -1.484375 0.578125 -2.65625q0.578125 -1.171875 1.609375 -1.8125q1.046875 -0.640625 2.375 -0.640625q2.046875 0 3.3125 1.421875q1.265625 1.40625 1.265625 3.765625l0 0.125q0 1.46875 -0.5625 2.640625q-0.5625 1.15625 -1.609375 1.8125q-1.046875 0.640625 -2.390625 0.640625q-2.046875 0 -3.3125 -1.421875q-1.265625 -1.421875 -1.265625 -3.75l0 -0.125zm1.71875 0.203125q0 1.671875 0.78125 2.6875q0.78125 1.0 2.078125 1.0q1.296875 0 2.0625 -1.015625q0.78125 -1.03125 0.78125 -2.875q0 -1.65625 -0.78125 -2.671875q-0.78125 -1.03125 -2.078125 -1.03125q-1.28125 0 -2.0625 1.015625q-0.78125 1.0 -0.78125 2.890625zm14.233643 -3.59375q-0.390625 -0.0625 -0.84375 -0.0625q-1.6875 0 -2.296875 1.4375l0 7.125l-1.71875 0l0 -10.03125l1.671875 0l0.03125 1.15625q0.84375 -1.34375 2.390625 -1.34375q0.5 0 0.765625 0.125l0 1.59375zm7.6566467 8.5q-0.15625 -0.296875 -0.25 -1.0625q-1.1875 1.25 -2.8594055 1.25q-1.484375 0 -2.4375 -0.84375q-0.9375 -0.84375 -0.9375 -2.125q0 -1.5625 1.1875 -2.4375q1.1875 -0.875 3.359375 -0.875l1.6719055 0l0 -0.78125q0 -0.90625 -0.546875 -1.4375q-0.53125 -0.53125 -1.5781555 -0.53125q-0.921875 0 -1.546875 0.46875q-0.625 0.46875 -0.625 1.125l-1.71875 0q0 -0.75 0.53125 -1.453125q0.53125 -0.703125 1.4375 -1.109375q0.921875 -0.40625 2.015625 -0.40625q1.7344055 0 2.7187805 0.875q0.984375 0.859375 1.015625 2.375l0 4.625q0 1.375 0.359375 2.1875l0 0.15625l-1.796875 0zm-2.8594055 -1.3125q0.8125 0 1.5312805 -0.40625q0.734375 -0.421875 1.0625 -1.09375l0 -2.0625l-1.359375 0q-3.1406555 0 -3.1406555 1.84375q0 0.8125 0.53125 1.265625q0.53125 0.453125 1.375 0.453125zm9.132355 -11.15625l0 2.4375l1.875 0l0 1.3125l-1.875 0l0 6.234375q0 0.59375 0.25 0.90625q0.25 0.296875 0.859375 0.296875q0.296875 0 0.8125 -0.109375l0 1.390625q-0.671875 0.1875 -1.3125 0.1875q-1.15625 0 -1.75 -0.6875q-0.578125 -0.703125 -0.578125 -1.984375l0 -6.234375l-1.828125 0l0 -1.3125l1.828125 0l0 -2.4375l1.71875 0z" fill-rule="nonzero"></path><path fill="#000000" fill-opacity="0.0" d="m197.3307 482.81366l128.7559 0l0 41.51178l-128.7559 0z" fill-rule="evenodd"></path><path fill="#000000" d="m232.98894 509.03644l6.40625 0l0 1.453125l-8.203125 0l0 -13.515625l1.796875 0l0 12.0625zm9.835541 1.453125l-1.703125 0l0 -10.03125l1.703125 0l0 10.03125zm-1.84375 -12.703125q0 -0.421875 0.25 -0.703125q0.25 -0.28125 0.75 -0.28125q0.515625 0 0.765625 0.28125q0.265625 0.28125 0.265625 0.703125q0 0.421875 -0.265625 0.703125q-0.25 0.265625 -0.765625 0.265625q-0.5 0 -0.75 -0.265625q-0.25 -0.28125 -0.25 -0.703125zm8.543045 11.484375q0.921875 0 1.59375 -0.546875q0.6875 -0.5625 0.765625 -1.390625l1.625 0q-0.046875 0.859375 -0.59375 1.640625q-0.546875 0.765625 -1.46875 1.234375q-0.90625 0.46875 -1.921875 0.46875q-2.046875 0 -3.265625 -1.359375q-1.203125 -1.375 -1.203125 -3.75l0 -0.296875q0 -1.46875 0.53125 -2.609375q0.546875 -1.140625 1.546875 -1.765625q1.0 -0.625 2.375 -0.625q1.6875 0 2.796875 1.015625q1.125 1.0 1.203125 2.609375l-1.625 0q-0.078125 -0.96875 -0.734375 -1.59375q-0.65625 -0.625 -1.640625 -0.625q-1.296875 0 -2.03125 0.9375q-0.71875 0.9375 -0.71875 2.71875l0 0.328125q0 1.734375 0.71875 2.671875q0.71875 0.9375 2.046875 0.9375zm9.906006 1.40625q-2.046875 0 -3.328125 -1.34375q-1.28125 -1.34375 -1.28125 -3.578125l0 -0.328125q0 -1.484375 0.5625 -2.65625q0.578125 -1.171875 1.59375 -1.828125q1.03125 -0.671875 2.234375 -0.671875q1.953125 0 3.03125 1.296875q1.09375 1.28125 1.09375 3.6875l0 0.703125l-6.796875 0q0.03125 1.484375 0.859375 2.40625q0.84375 0.90625 2.125 0.90625q0.90625 0 1.53125 -0.359375q0.640625 -0.375 1.109375 -0.984375l1.046875 0.8125q-1.265625 1.9375 -3.78125 1.9375zm-0.21875 -9.0q-1.03125 0 -1.75 0.765625q-0.703125 0.75 -0.859375 2.109375l5.015625 0l0 -0.125q-0.0625 -1.3125 -0.703125 -2.03125q-0.625 -0.71875 -1.703125 -0.71875zm7.5556946 -1.21875l0.0625 1.25q1.140625 -1.4375 3.0 -1.4375q3.1875 0 3.203125 3.578125l0 6.640625l-1.703125 0l0 -6.640625q-0.015625 -1.09375 -0.5 -1.609375q-0.484375 -0.515625 -1.515625 -0.515625q-0.84375 0 -1.46875 0.453125q-0.625 0.4375 -0.984375 1.15625l0 7.15625l-1.71875 0l0 -10.03125l1.625 0zm12.699982 8.8125q0.921875 0 1.59375 -0.546875q0.6875 -0.5625 0.765625 -1.390625l1.625 0q-0.046875 0.859375 -0.59375 1.640625q-0.546875 0.765625 -1.46875 1.234375q-0.90625 0.46875 -1.921875 0.46875q-2.046875 0 -3.265625 -1.359375q-1.203125 -1.375 -1.203125 -3.75l0 -0.296875q0 -1.46875 0.53125 -2.609375q0.546875 -1.140625 1.546875 -1.765625q1.0 -0.625 2.375 -0.625q1.6875 0 2.796875 1.015625q1.125 1.0 1.203125 2.609375l-1.625 0q-0.078125 -0.96875 -0.734375 -1.59375q-0.65625 -0.625 -1.640625 -0.625q-1.296875 0 -2.03125 0.9375q-0.71875 0.9375 -0.71875 2.71875l0 0.328125q0 1.734375 0.71875 2.671875q0.71875 0.9375 2.046875 0.9375zm9.906006 1.40625q-2.046875 0 -3.328125 -1.34375q-1.28125 -1.34375 -1.28125 -3.578125l0 -0.328125q0 -1.484375 0.5625 -2.65625q0.578125 -1.171875 1.59375 -1.828125q1.03125 -0.671875 2.234375 -0.671875q1.953125 0 3.03125 1.296875q1.09375 1.28125 1.09375 3.6875l0 0.703125l-6.796875 0q0.03125 1.484375 0.859375 2.40625q0.84375 0.90625 2.125 0.90625q0.90625 0 1.53125 -0.359375q0.640625 -0.375 1.109375 -0.984375l1.046875 0.8125q-1.265625 1.9375 -3.78125 1.9375zm-0.21875 -9.0q-1.03125 0 -1.75 0.765625q-0.703125 0.75 -0.859375 2.109375l5.015625 0l0 -0.125q-0.0625 -1.3125 -0.703125 -2.03125q-0.625 -0.71875 -1.703125 -0.71875z" fill-rule="nonzero"></path><path fill="#000000" fill-opacity="0.0" d="m304.3832 360.38058l128.75589 0l0 41.51181l-128.75589 0z" fill-rule="evenodd"></path><path fill="#000000" d="m343.46298 374.54086l4.40625 11.03125l4.421875 -11.03125l2.3125 0l0 13.515625l-1.78125 0l0 -5.265625l0.15625 -5.671875l-4.421875 10.9375l-1.375 0l-4.421875 -10.90625l0.171875 5.640625l0 5.265625l-1.78125 0l0 -13.515625l2.3125 0zm19.91278 13.515625q-0.15625 -0.296875 -0.25 -1.0625q-1.1875 1.25 -2.859375 1.25q-1.484375 0 -2.4375 -0.84375q-0.9375 -0.84375 -0.9375 -2.125q0 -1.5625 1.1875 -2.4375q1.1875 -0.875 3.359375 -0.875l1.671875 0l0 -0.78125q0 -0.90625 -0.546875 -1.4375q-0.53125 -0.53125 -1.578125 -0.53125q-0.921875 0 -1.546875 0.46875q-0.625 0.46875 -0.625 1.125l-1.71875 0q0 -0.75 0.53125 -1.453125q0.53125 -0.703125 1.4375 -1.109375q0.921875 -0.40625 2.015625 -0.40625q1.734375 0 2.71875 0.875q0.984375 0.859375 1.015625 2.375l0 4.625q0 1.375 0.359375 2.1875l0 0.15625l-1.796875 0zm-2.859375 -1.3125q0.8125 0 1.53125 -0.40625q0.734375 -0.421875 1.0625 -1.09375l0 -2.0625l-1.359375 0q-3.140625 0 -3.140625 1.84375q0 0.8125 0.53125 1.265625q0.53125 0.453125 1.375 0.453125zm12.64798 -1.34375q0 -0.703125 -0.53125 -1.078125q-0.515625 -0.390625 -1.828125 -0.671875q-1.296875 -0.28125 -2.0625 -0.671875q-0.765625 -0.390625 -1.140625 -0.921875q-0.359375 -0.546875 -0.359375 -1.28125q0 -1.234375 1.046875 -2.078125q1.046875 -0.859375 2.671875 -0.859375q1.703125 0 2.765625 0.875q1.0625 0.875 1.0625 2.25l-1.71875 0q0 -0.703125 -0.609375 -1.203125q-0.59375 -0.515625 -1.5 -0.515625q-0.9375 0 -1.46875 0.40625q-0.53125 0.40625 -0.53125 1.0625q0 0.625 0.484375 0.9375q0.5 0.3125 1.78125 0.609375q1.296875 0.28125 2.09375 0.6875q0.796875 0.390625 1.171875 0.953125q0.390625 0.5625 0.390625 1.375q0 1.34375 -1.078125 2.15625q-1.078125 0.8125 -2.796875 0.8125q-1.203125 0 -2.125 -0.421875q-0.921875 -0.4375 -1.453125 -1.203125q-0.53125 -0.765625 -0.53125 -1.65625l1.71875 0q0.046875 0.859375 0.6875 1.375q0.65625 0.5 1.703125 0.5q0.984375 0 1.5625 -0.390625q0.59375 -0.390625 0.59375 -1.046875zm6.104004 -9.8125l0 2.4375l1.875 0l0 1.3125l-1.875 0l0 6.234375q0 0.59375 0.25 0.90625q0.25 0.296875 0.859375 0.296875q0.296875 0 0.8125 -0.109375l0 1.390625q-0.671875 0.1875 -1.3125 0.1875q-1.15625 0 -1.75 -0.6875q-0.578125 -0.703125 -0.578125 -1.984375l0 -6.234375l-1.828125 0l0 -1.3125l1.828125 0l0 -2.4375l1.71875 0zm7.938019 12.65625q-2.046875 0 -3.328125 -1.34375q-1.28125 -1.34375 -1.28125 -3.578125l0 -0.328125q0 -1.484375 0.5625 -2.65625q0.578125 -1.171875 1.59375 -1.828125q1.03125 -0.671875 2.234375 -0.671875q1.953125 0 3.03125 1.296875q1.09375 1.28125 1.09375 3.6875l0 0.703125l-6.796875 0q0.03125 1.484375 0.859375 2.40625q0.84375 0.90625 2.125 0.90625q0.90625 0 1.53125 -0.359375q0.640625 -0.375 1.109375 -0.984375l1.046875 0.8125q-1.265625 1.9375 -3.78125 1.9375zm-0.21875 -9.0q-1.03125 0 -1.75 0.765625q-0.703125 0.75 -0.859375 2.109375l5.015625 0l0 -0.125q-0.0625 -1.3125 -0.703125 -2.03125q-0.625 -0.71875 -1.703125 -0.71875zm10.790039 0.3125q-0.390625 -0.0625 -0.84375 -0.0625q-1.6875 0 -2.296875 1.4375l0 7.125l-1.71875 0l0 -10.03125l1.671875 0l0.03125 1.15625q0.84375 -1.34375 2.390625 -1.34375q0.5 0 0.765625 0.125l0 1.59375z" fill-rule="nonzero"></path></g></svg>

